PathFileType	4	(X/Y/Z)	11_coords_data.trc
DataRate	CameraRate	NumFrames	NumMarkers	Units	OrigDataRate	OrigDataStartFrame	OrigNumFrames
30.0	30.0	7	21	m	30.0	21	62
Frame#	Time	THUMB_TIP	THUMB_IP	THUMB_MCP	THUMB_CMC	INDEX_TIP	INDEX_DIP	INDEX_PIP	INDEX_MCP	MIDDLE_TIP	MIDDLE_DIP	MIDDLE_PIP	MIDDLE_MCP	RING_TIP	RING_DIP	RING_PIP	RING_MCP	PINKY_TIP	PINKY_DIP	PINKY_PIP	PINKY_MCP	WRIST
X1	Y1	Z1	X2	Y2	Z2	X3	Y3	Z3	X4	Y4	Z4	X5	Y5	Z5	X6	Y6	Z6	X7	Y7	Z7	X8	Y8	Z8	X9	Y9	Z9	X10	Y10	Z10	X11	Y11	Z11	X12	Y12	Z12	X13	Y13	Z13	X14	Y14	Z14	X15	Y15	Z15	X16	Y16	Z16	X17	Y17	Z17	X18	Y18	Z18	X19	Y19	Z19	X20	Y20	Z20	X21	Y21	Z21
19	0.6666666666666637	0.4670933974748496	-0.00951200561317278	-0.16517976737859585	0.4786962891640168	-0.012995959128411672	-0.14565452801122536	0.4789460858764028	-0.027452324013526264	-0.11809058206890943	0.4799161701570893	-0.029711940603165288	-0.0735502287995854	0.5126132367226762	-0.014112502827545392	-0.10240845411112642	0.5300545429908383	-0.00966063933253214	-0.10440388566393355	0.5396266239166336	0.010584473956270046	-0.11582844200864961	0.49746399889009896	0.016048838019662837	-0.11829620825660447	0.5107599833154127	-0.014494157534877927	-0.08413868295116134	0.5279567378537293	-0.009115547394417334	-0.08231051821410351	0.5428005898285004	0.01435699099301091	-0.09114847896315625	0.5021196550458888	0.03173202012506959	-0.09741887200291155	0.5080234288774703	-0.0027032655174693554	-0.06979449945854588	0.5250676546222641	0.002161717569896582	-0.06650416386469626	0.5395142194131524	0.022222605213544133	-0.06951041263876945	0.5042210892209416	0.04095913088272374	-0.07567956177652191	0.5062872157853691	-0.004386707788775257	-0.05248734825123913	0.5223008799140827	-0.00015339433370431532	-0.04816975420317626	0.5321131696210198	0.018408138566804122	-0.048147706743506546	0.502736719806813	0.03878898853154822	-0.0528941371946956	0.46228308100186094	-0.023011742144276925	-0.051989820119430985
20	0.6999999999999968	0.4674561215055271	-0.009340408067882278	-0.16515853590327356	0.4789859227680109	-0.012839651393612095	-0.14559277552972905	0.47915965026095564	-0.027339171669223283	-0.11805092137037121	0.4799818721763835	-0.029664705759771648	-0.07351098600540362	0.5124847482674102	-0.014056885729334057	-0.10225716490532921	0.5299643103932905	-0.009704285775774979	-0.10413327298637687	0.5397436595728268	0.0105111484367727	-0.11543417481865803	0.4976180022701951	0.016133611504890677	-0.1181641931096018	0.5106018705342922	-0.014462659052957183	-0.08400274647938699	0.5278125541457814	-0.009172988183290265	-0.08205037568575901	0.5428060790904898	0.014251334034110053	-0.0907627168399967	0.502227778604374	0.031780250883493455	-0.09726552582887937	0.5078439965493666	-0.002719095900008628	-0.0696460280422011	0.5248861550966634	0.0020752792790206254	-0.06624326465173325	0.5394482789596662	0.022066913517080122	-0.06915171580143786	0.5042838310378877	0.040989575516179544	-0.07548537976666125	0.506058257568709	-0.004366053576080442	-0.0523648110921886	0.522068722073423	-0.0002444024450033444	-0.04792893256623887	0.5319585586027428	0.01827568846052552	-0.04783205494095999	0.5027071065616329	0.03881108870365668	-0.052683172476235995	0.4622830810018609	-0.023011742144276925	-0.051989820119430985
21	0.7333333333333302	0.467727617157793	-0.009288150927710626	-0.16515826313654436	0.4792074600176288	-0.012761572544197741	-0.14555855522577188	0.4793497192963002	-0.027279034495868437	-0.11802597342203558	0.48003049763346334	-0.029620665772029375	-0.07348449495732645	0.5118825851162371	-0.013849678183879388	-0.10218847746804549	0.5294672700920703	-0.009822430636153845	-0.10378851855815607	0.5396918328529963	0.010247618696472505	-0.11495369966433766	0.497644069999498	0.0162271762046583	-0.11809481809927058	0.509853134741908	-0.014140544855500758	-0.08399148317379379	0.5271327684909248	-0.009181420644280291	-0.08179572714055072	0.5425940328364962	0.013984419940770376	-0.0903807539211956	0.5022143699826873	0.03185246794653529	-0.0971898367725359	0.5070346398822168	-0.0024107117345409934	-0.06959166535373784	0.524120268628768	0.0020482764476790205	-0.06595866181316057	0.5391135774874836	0.02173418530141924	-0.06875967253598947	0.5042257038545517	0.041066127396730434	-0.07538033127935662	0.5051607547931953	-0.004127861503248398	-0.05224716165771237	0.5212249681547038	-0.00036301210780997906	-0.047690083854383	0.5314901005517607	0.01795126753604981	-0.047528105468812254	0.5025643878691441	0.038905626567507956	-0.05253823863904572	0.4622830810018609	-0.023011742144276925	-0.051989820119430985
22	0.7666666666666633	0.46785268484242365	-0.009249708784635047	-0.16511431732091442	0.47929428169969857	-0.012682078985765899	-0.14548503572025495	0.4794493990531513	-0.02722209919084695	-0.11796442978501986	0.48012086237294876	-0.029575546212764925	-0.07342343266859708	0.5110600453071923	-0.013519876513405249	-0.10202121112405282	0.5287439111779351	-0.009849859498284985	-0.10336726571964006	0.5395080789337549	0.009977389755290722	-0.11445882614012004	0.4975562310843522	0.0163543849055916	-0.11806610889499447	0.508548830947029	-0.013411426537983329	-0.08388977943706488	0.5259981583495932	-0.009211986783784765	-0.08146373760952363	0.5421628764135014	0.013496918826376159	-0.08997355816598451	0.5021131801252017	0.03194998514821745	-0.09716063626050098	0.5056194182115822	-0.0017531117734095325	-0.06928007650515489	0.5228501690989427	0.002082689184586095	-0.06562113473623243	0.5384687197627793	0.021286188945546902	-0.06835361549406982	0.5039982838467015	0.041215265893573605	-0.07537798548398444	0.5037488167042801	-0.00356876175671883	-0.05202314987034695	0.5199371305706757	-0.0003027492009407551	-0.04752074427460529	0.5307212343251403	0.017710510070596097	-0.04732679678342955	0.5021881680375369	0.03914877081430912	-0.05253722435818842	0.46228308100186083	-0.023011742144276925	-0.051989820119430985
23	0.7999999999999965	0.4676634206169806	-0.009136811894476904	-0.1650532191507168	0.4791362278786443	-0.012520856023989002	-0.14543376607816072	0.4793964623482104	-0.027106536911942203	-0.11793812658649494	0.4801603461537439	-0.029535722160042077	-0.07340268518796311	0.5108075841257804	-0.013384841388229596	-0.10140201032266305	0.5284549917637578	-0.009642053912306547	-0.10300218080393542	0.5392470937205676	0.010054648912858122	-0.11429732428115491	0.4973248857208835	0.01651725600327203	-0.11809196260728805	0.5078005549195104	-0.013042909913778766	-0.08342993231695617	0.5253461090331584	-0.009111970845545159	-0.08126169596293942	0.5417114096292388	0.013401427513736519	-0.08990654302441103	0.5018131607252555	0.03214290794067787	-0.09718902658445938	0.5049711976658718	-0.0015066541062461747	-0.06864344096157227	0.5222825671828755	0.0022962459142583658	-0.06534883371945543	0.5379422921265972	0.0214326694936664	-0.0683069220001633	0.50356013298534	0.041479446856700575	-0.07542834630589113	0.5030893880273523	-0.0033550705717113605	-0.05186595669026195	0.5193184288864623	-2.0385999521255194e-05	-0.04756501358469345	0.5301250015868969	0.01798010159090402	-0.047453425157119034	0.5016427442482162	0.039494704308359774	-0.05262704456747547	0.46228308100186083	-0.023011742144276925	-0.051989820119430985
24	0.8333333333333297	0.4674507754466684	-0.009132133365496897	-0.1649931952605237	0.47899144922105835	-0.012436662420891476	-0.1454000092879678	0.4793312469576829	-0.027059580413765105	-0.11792502417656359	0.4801731387608616	-0.02953134508522759	-0.0733933321179785	0.5118660828158801	-0.013756976594725967	-0.10043192908269516	0.5292530370675381	-0.009318184366242654	-0.10287956986579727	0.5392699808801386	0.010502662705281662	-0.11466111013107905	0.49725427586824894	0.0165315103095367	-0.11812082441386984	0.5087839171168104	-0.013688853157250769	-0.08270571723311892	0.5261911340705776	-0.008897468562509392	-0.08128043424726772	0.5417473882160477	0.014037722962478405	-0.09030204700074318	0.5015606415698142	0.03229200249906827	-0.09722697253041335	0.5059684368508928	-0.002135806519036554	-0.06799905628521885	0.5231644823121249	0.002585238376406007	-0.06535183971106873	0.5380023360117823	0.02229785108887128	-0.06873281244623275	0.5031790754897573	0.041687258967674445	-0.07552341055866618	0.5040771712047843	-0.00400858621497191	-0.051834675760497495	0.5201302299880923	0.00036417025357160515	-0.047812449440849836	0.5302394896801409	0.018765512349034785	-0.047886588259688834	0.501290288935555	0.03971343288536122	-0.05278677728190273	0.4622830810018609	-0.023011742144276925	-0.051989820119430985
25	0.8666666666666629	0.46729534148946617	-0.009069988592888989	-0.16492091785658036	0.47891171352376927	-0.012377100801147844	-0.14537295352259805	0.4792384741910272	-0.027077824226452885	-0.11793936173736119	0.4801203171681151	-0.029614021832535697	-0.07341206612369666	0.5143932231287643	-0.014681076011179628	-0.100015114214275	0.5312644078552543	-0.009102306201047239	-0.10351375013849007	0.5397798954073441	0.011128181769147871	-0.11577032638302076	0.49756337613972934	0.016199480360426843	-0.11815434096460542	0.5116863314962388	-0.01485898513695283	-0.08252721390309103	0.5286626927745905	-0.008585205997886702	-0.08186174184425166	0.5426123085402847	0.01521454170652381	-0.09126332571059581	0.5017011334737871	0.032120564934175366	-0.09731395000107046	0.5088037710678752	-0.0032717182227026687	-0.06807273499762057	0.5256250709193788	0.002865150708249775	-0.06597924245401787	0.5389878264126199	0.02355083674129288	-0.06968317792459788	0.5032882528616918	0.04154140941731299	-0.07573301900273532	0.5068907181292788	-0.004953287765249614	-0.05219051938271657	0.522545275271725	0.0008072729838931592	-0.048349844893863736	0.5314498281815703	0.019819550779565764	-0.04858276010578011	0.5015809340319972	0.039527093595495444	-0.05309334426306045	0.4622830810018609	-0.023011742144276925	-0.051989820119430985
